<?xml version="1.0" encoding="utf-8"?>
<!-- Generator: Adobe Illustrator 24.1.2, SVG Export Plug-In . SVG Version: 6.00 Build 0)  -->
<svg version="1.1" id="Lag_1" xmlns="http://www.w3.org/2000/svg" xmlns:xlink="http://www.w3.org/1999/xlink" x="0px" y="0px"
	 viewBox="0 0 235.3 237.5" style="enable-background:new 0 0 235.3 237.5;" xml:space="preserve">
<style type="text/css">
	.st0{fill:#FFFFFF;stroke:#FFFFFF;stroke-width:3;stroke-linejoin:bevel;}
	.st1{fill:#F9BF1C;}
	.st2{fill:#FFFFFF;stroke:#FFFFFF;stroke-width:3.09;stroke-linejoin:bevel;}
	.st3{fill:#565555;}
</style>
<g id="a909189c-2b3b-4f8e-8f3a-f1795faaf6f3">
	<g id="ae000ae2-15d0-4076-9d90-280f8df50204">
		<g>
			<polygon class="st0" points="144.6,4.5 110.5,1.5 90,236 124.4,236 			"/>
			<g>
				<path class="st0" d="M233.5,63.2l-33.3,22.3L12.8,69.2l21.5-23.4C28.6,36.9,22.9,27.9,17.2,19l187.4,16.4L233.5,63.2z"/>
				<polygon class="st1" points="127.8,66 120.4,61.2 112.2,64.7 114.4,56.1 108.7,49.5 117.5,48.9 122,41.4 125.2,49.6 133.8,51.6 
					127,57.2 				"/>
				<polygon class="st1" points="95.7,63.1 88.2,58.4 80.1,61.9 82.3,53.3 76.6,46.7 85.3,46.1 89.9,38.6 93.1,46.8 101.7,48.8 
					94.9,54.4 				"/>
				<polygon class="st1" points="159.9,68.8 152.5,64 144.4,67.5 146.6,58.9 140.8,52.3 149.6,51.7 154.1,44.2 157.4,52.4 
					165.9,54.4 159.1,60 				"/>
				<polygon class="st1" points="192,71.6 184.6,66.8 176.5,70.3 178.7,61.7 172.9,55.1 181.7,54.5 186.2,47 189.5,55.2 198.1,57.2 
					191.3,62.8 				"/>
				<polygon class="st1" points="63.6,60.3 56.1,55.6 48,59 50.2,50.5 44.4,43.8 53.2,43.3 57.8,35.8 61,44 69.6,45.9 62.8,51.6 
									"/>
			</g>
			<g>
				<path class="st2" d="M234.3,133.7l-34.1,23.8L1.1,149.1l21.5-24.3l-19.4-26l199.1,8.4L234.3,133.7z"/>
				<g>
					<path class="st3" d="M43.6,135.9l-3-7l-2.1-0.1l-0.3,6.9l-3.1-0.1l0.9-21.7l4.8,0.2c1.7,0,3.4,0.8,4.5,2.2
						c1.1,1.6,1.6,3.5,1.4,5.4c0,1.3-0.3,2.5-0.8,3.7c-0.4,1.1-1.1,2-2,2.7l3.3,8L43.6,135.9z M38.6,124.6l2.2,0.1
						c0.8,0.1,1.5-0.3,1.9-0.9c0.4-0.6,0.6-1.4,0.7-2.2c0-0.8-0.1-1.6-0.4-2.3c-0.3-0.7-1.1-1.2-1.9-1.2l-2.2-0.1L38.6,124.6z"/>
					<path class="st3" d="M55.9,132.4l1.2,3.1c-0.5,0.4-1.1,0.7-1.7,0.9c-0.5,0.2-1.1,0.3-1.7,0.3c-1,0-2-0.4-2.8-1
						c-0.8-0.7-1.4-1.5-1.7-2.5c-0.4-1.2-0.5-2.4-0.5-3.6c0-1.2,0.3-2.4,0.9-3.4c0.5-1,1.2-1.8,2.1-2.4c0.8-0.6,1.8-0.9,2.8-0.8
						c1.3,0,2.5,0.7,3.2,1.8c0.9,1.4,1.4,3,1.5,4.7l-7,2.7c0.4,0.7,1.1,1.1,1.8,1.2C54.7,133.1,55.4,132.9,55.9,132.4z M52.4,126.9
						c-0.5,0.8-0.7,1.6-0.7,2.5v0.3l4.2-1.7c-0.2-1.2-0.9-1.9-1.8-1.9C53.4,126,52.8,126.3,52.4,126.9z"/>
					<path class="st3" d="M71.2,124.1L65.3,137h-0.1l-5.1-13.4l3.6,0.2l1.9,6.2l2.2-6L71.2,124.1z"/>
					<path class="st3" d="M74.4,117.9c0.3-0.4,0.7-0.6,1.2-0.6c0.4,0,0.9,0.3,1.1,0.7c0.3,0.4,0.5,1,0.4,1.5c0,0.5-0.2,1.1-0.6,1.4
						c-0.3,0.3-0.7,0.5-1.1,0.5c-0.5,0-0.9-0.3-1.1-0.6c-0.3-0.4-0.5-1-0.4-1.5C73.9,118.8,74.1,118.3,74.4,117.9z M76.8,124.1
						l-0.6,12.8l-3-0.1l0.5-12.8L76.8,124.1z"/>
					<path class="st3" d="M104.4,125.3l-4.8,13.4l-2.6-8.6l-3.1,8.4l-3.7-13.8l2.9,0.1l1.5,5.5l1.5-3.9l-0.5-1.5l2.6,0.1l1.5,5.8
						l1.8-5.6L104.4,125.3z"/>
					<path class="st3" d="M112.8,128.4c0.4-1,1.1-1.8,2-2.4c0.9-0.6,1.9-0.8,2.9-0.7c1,0,1.9,0.4,2.7,1c0.8,0.7,1.4,1.5,1.7,2.5
						c0.4,1.1,0.6,2.4,0.5,3.6c0,1.2-0.3,2.4-0.8,3.5c-0.4,1-1.1,1.8-1.9,2.4c-0.8,0.6-1.8,0.8-2.8,0.8c-1,0-2-0.4-2.7-1
						c-0.8-0.6-1.4-1.5-1.8-2.5c-0.4-1.2-0.6-2.5-0.5-3.7C112,130.7,112.3,129.5,112.8,128.4z M115.5,134.6c0.3,0.6,0.9,1,1.6,1.1
						c0.7,0,1.4-0.3,1.7-0.9c0.9-1.6,1-3.5,0.2-5.1c-0.3-0.6-0.9-1-1.6-1.1c-0.7,0-1.3,0.3-1.7,0.9c-0.5,0.8-0.7,1.6-0.8,2.5
						C114.9,132.9,115.1,133.8,115.5,134.6z"/>
					<path class="st3" d="M134.5,126.5l-0.5,12.9l-2.7-0.1l-0.1-2c-0.3,0.7-0.8,1.4-1.5,1.9c-0.6,0.5-1.4,0.7-2.1,0.6
						c-0.8,0-1.6-0.5-2.1-1.2c-0.6-0.8-0.8-1.8-0.8-2.8l0.4-9.6l3,0.1l-0.3,8.1c0,1.2,0.4,1.9,1.2,1.9s1.2-0.4,1.6-1.3
						c0.5-1.1,0.7-2.2,0.7-3.4l0.2-5.2L134.5,126.5z"/>
					<path class="st3" d="M141.5,127.9c0.4-0.5,0.9-0.9,1.4-1.2c0.3-0.2,0.7-0.4,1.1-0.4l-0.3,4.1c-0.1,0-0.2,0-0.4,0
						c-0.6,0-1.2,0.2-1.6,0.6c-0.5,0.4-0.9,1-1.1,1.6c-0.3,0.7-0.4,1.4-0.4,2.1l-0.2,5l-3-0.1l0.5-12.9l2.7,0.1l0.1,3
						C140.6,129.1,141,128.5,141.5,127.9z"/>
					<path class="st3" d="M161.8,128.2c0.6,0.8,0.9,1.8,0.8,2.8l-0.4,9.6l-3-0.1l0.3-8.1c0-1.2-0.4-1.9-1.3-1.9
						c-0.7,0-1.2,0.4-1.7,1.3c-0.5,1.1-0.8,2.2-0.8,3.4l-0.2,5.2l-3-0.1l1-23.2l2.9,0.1l-0.5,12.4c0.3-0.7,0.9-1.4,1.5-1.9
						c0.6-0.4,1.4-0.7,2.2-0.6C160.5,127,161.3,127.5,161.8,128.2z"/>
					<path class="st3" d="M165.6,130.6c0.4-1,1.1-1.8,2-2.4c0.8-0.6,1.8-0.8,2.8-0.8c1,0,1.9,0.4,2.7,1c0.8,0.7,1.4,1.5,1.7,2.5
						c0.4,1.1,0.6,2.4,0.5,3.6c0,1.2-0.3,2.4-0.8,3.5c-0.4,1-1.1,1.8-1.9,2.4c-0.8,0.6-1.8,0.8-2.8,0.8c-1,0-2-0.4-2.7-1
						c-0.8-0.6-1.4-1.5-1.8-2.5c-0.4-1.2-0.6-2.5-0.5-3.7C164.8,132.8,165.1,131.7,165.6,130.6z M168.3,136.8c0.3,0.6,0.9,1,1.6,1.1
						c0.7,0,1.3-0.3,1.7-0.9c0.9-1.6,1-3.5,0.2-5.1c-0.3-0.6-0.9-1-1.6-1.1c-0.7,0-1.3,0.3-1.7,0.9c-0.5,0.8-0.7,1.6-0.8,2.5
						C167.7,135.1,167.9,136,168.3,136.8z"/>
					<path class="st3" d="M187.3,128.8l-0.5,12.9l-2.7-0.1l-0.1-2.1c-0.3,0.7-0.8,1.4-1.5,1.9c-0.6,0.5-1.4,0.7-2.1,0.6
						c-0.8,0-1.6-0.5-2.1-1.2c-0.6-0.8-0.8-1.8-0.8-2.8l0.4-9.6l3,0.1l-0.3,8.1c0,1.2,0.4,1.9,1.2,1.9c0.6,0,1.2-0.4,1.6-1.3
						c0.5-1.1,0.7-2.2,0.7-3.4l0.2-5.2L187.3,128.8z"/>
					<path class="st3" d="M190.7,141.5c-0.7-0.4-1.2-1-1.6-1.6l1.3-2.2c0.8,1.1,1.5,1.6,2.3,1.7c0.3,0,0.7,0,0.9-0.2
						c0.2-0.2,0.4-0.4,0.4-0.7c0-0.4-0.1-0.7-0.4-0.9c-0.3-0.2-0.6-0.4-0.9-0.6l-0.7-0.3c-0.8-0.3-1.4-0.9-1.8-1.6
						c-0.4-0.7-0.6-1.6-0.5-2.4c0-0.7,0.2-1.4,0.5-2c0.3-0.6,0.7-1.2,1.3-1.6c0.6-0.4,1.4-0.6,2.1-0.5c0.7,0,1.4,0.1,2,0.4
						c0.6,0.3,1.1,0.7,1.5,1.1l-1.2,2.4c-0.3-0.3-0.6-0.6-0.9-0.8c-0.3-0.2-0.6-0.3-0.9-0.4c-0.3,0-0.6,0.1-0.9,0.3
						c-0.2,0.2-0.3,0.4-0.4,0.7c-0.1,0.4,0.1,0.7,0.3,0.9c0.4,0.3,0.8,0.5,1.2,0.7l0.3,0.1l0.3,0.1c1.4,0.7,2.3,2.2,2.1,3.7
						c0,0.8-0.2,1.5-0.5,2.2c-0.3,0.7-0.8,1.2-1.4,1.6c-0.7,0.4-1.5,0.6-2.2,0.5C192.1,142.1,191.3,141.9,190.7,141.5z"/>
					<path class="st3" d="M206,138.4l1.2,3.1c-0.5,0.4-1.1,0.7-1.7,0.9c-0.5,0.2-1.1,0.3-1.6,0.3c-1,0-2-0.4-2.9-1
						c-0.8-0.6-1.4-1.5-1.7-2.5c-0.4-1.2-0.5-2.4-0.5-3.6c0-1.2,0.3-2.4,0.9-3.4c0.5-1,1.2-1.8,2.1-2.4c0.8-0.6,1.8-0.9,2.8-0.8
						c1.3,0,2.5,0.7,3.2,1.8c0.9,1.4,1.4,3,1.5,4.7l-7,2.7c0.3,0.7,1,1.1,1.8,1.2C204.8,139.2,205.5,138.9,206,138.4z M202.5,132.9
						c-0.5,0.8-0.7,1.6-0.7,2.5v0.3l4.2-1.7c-0.2-1.2-0.9-1.9-1.8-1.9C203.5,132,202.9,132.4,202.5,132.9L202.5,132.9z"/>
					<path class="st3" d="M85.9,133.4l1.2,3.1c-0.5,0.4-1.1,0.7-1.7,0.9c-0.5,0.2-1.1,0.3-1.6,0.3c-1,0-2-0.4-2.9-1
						c-0.8-0.6-1.4-1.5-1.7-2.5c-0.4-1.2-0.5-2.4-0.5-3.6c0-1.2,0.3-2.4,0.9-3.4c0.5-1,1.2-1.8,2.1-2.4c0.8-0.6,1.8-0.9,2.8-0.8
						c1.3,0,2.5,0.7,3.2,1.8c0.9,1.4,1.4,3,1.5,4.7l-7,2.7c0.3,0.7,1,1.1,1.8,1.2C84.7,134.2,85.3,133.9,85.9,133.4z M82.4,127.9
						c-0.5,0.8-0.7,1.6-0.7,2.5v0.3l4.2-1.7c-0.2-1.2-0.9-1.9-1.8-1.9C83.4,127,82.7,127.4,82.4,127.9L82.4,127.9z"/>
				</g>
			</g>
		</g>
	</g>
</g>
</svg>
